<svg xmlns="http://www.w3.org/2000/svg" viewBox="0 0 96 96" role="img" aria-labelledby="title desc">
  <title id="title">PM SHRI GSS MUS Crest</title>
  <desc id="desc">A simple school crest with an open book, sun, and initials.</desc>
  <defs>
    <linearGradient id="crestBg" x1="18" y1="8" x2="78" y2="88" gradientUnits="userSpaceOnUse">
      <stop offset="0" stop-color="#0f4c81"/>
      <stop offset="0.58" stop-color="#12664f"/>
      <stop offset="1" stop-color="#d88916"/>
    </linearGradient>
  </defs>
  <path fill="url(#crestBg)" d="M48 6 82 18v26c0 22-13.4 36.6-34 46C27.4 80.6 14 66 14 44V18L48 6Z"/>
  <path fill="#fffdf7" d="M48 15.5 73.2 24v20.4c0 16.9-9.4 28.5-25.2 36.2C32.2 72.9 22.8 61.3 22.8 44.4V24L48 15.5Z" opacity=".94"/>
  <path fill="#d88916" d="M48 24a9.5 9.5 0 0 1 9.3 7.6H38.7A9.5 9.5 0 0 1 48 24Z"/>
  <path fill="#12664f" d="M31 43c6.7-.8 11.8.5 17 4.5 5.2-4 10.3-5.3 17-4.5v24.4c-6.5-1.1-11.8.3-17 4.6-5.2-4.3-10.5-5.7-17-4.6V43Z"/>
  <path fill="#fffdf7" d="M34.8 48.4c4-.2 7.2.8 10.8 3.2v13.9c-3.5-2.1-6.9-3-10.8-2.9V48.4Zm26.4 0v14.2c-3.9-.1-7.3.8-10.8 2.9V51.6c3.6-2.4 6.8-3.4 10.8-3.2Z"/>
  <path fill="#0f4c81" d="M33 34.8h30v4.8H33z"/>
  <text x="48" y="37.9" text-anchor="middle" font-family="Arial, Helvetica, sans-serif" font-size="5.8" font-weight="700" fill="#fffdf7">GSS MUS</text>
</svg>
